<svg viewBox="0 0 116 56" fill="none" xmlns="http://www.w3.org/2000/svg">
    <path fill-rule="evenodd" clip-rule="evenodd" d="M65.102 10.4277V18.9784L70.6076 7.92506L72.1807 17.9357L80.046 12.9304L74.9335 24.4008L78.0797 25.8607L79.8493 28.989L94.5967 28.3634L85.1584 36.0799L87.518 38.7911L87.7146 42.1279L101.872 48.5931L89.8776 51.0958L90.6641 55.0583L108.558 51.3043L108.164 47.5504L94.2035 41.2937L106.198 38.7911L105.608 35.0371L88.5011 38.374L102.069 27.7377V27.3206L100.299 24.6094L85.7483 24.8179L95.1866 17.1014L92.827 13.9731L78.8662 25.0265L86.3382 8.75928V8.13361L82.7988 6.46518L74.7369 11.8876L73.7538 1.66843L69.8211 0L65.102 10.4277ZM113.307 37.9568C111.734 38.1236 110.554 40.4594 110.357 41.7108C110.084 43.4492 111.733 46.0904 112.913 46.7161H115.076V44.2134C113.661 44.2134 113.306 43.1706 113.11 42.545C112.913 41.5022 113.634 40.529 114.29 40.0423L113.307 37.9568ZM25.9526 35.4456L23.7711 34.6192L24.2325 33.8851L24.3483 33.701L24.2924 33.4907L20.7655 20.211L28.9934 27.1197L29.4003 27.4614L29.7167 27.0344L31.8166 24.1998L41.3595 18.7878L41.6201 18.64L41.6126 18.3404L41.4162 10.4649C41.4147 10.0369 41.21 9.68555 40.952 9.4203C40.6955 9.1566 40.361 8.94961 40.0216 8.7912C39.5342 8.56376 38.9764 8.4091 38.4889 8.34081L38.6628 4.65359L38.6633 4.64182V4.63004C38.6633 3.59306 38.0061 2.62478 37.2737 1.9479C36.8983 1.6009 36.4795 1.30748 36.0662 1.09853C35.6605 0.89343 35.224 0.75146 34.8206 0.75146H33.6408H33.5969L33.5538 0.7591L32.374 0.96765L32.302 0.98038L32.2366 1.0132L22.6017 5.85165L22.1658 6.07053L22.3738 6.51168L29.0493 20.6723L17.6452 10.9237L17.2832 10.6143L16.9565 10.9608L14.4003 13.672L14.2075 13.8765L14.282 14.1476L17.9778 27.587L9.97717 20.7263L9.60149 20.4041L9.27549 20.7765L6.71928 23.6962L6.38755 24.0751L6.76883 24.4041L18.1968 34.2652V35.2787L4.06624 31.8816L3.57269 31.7629L3.46151 32.2582L0.512031 45.3971L0.331543 46.2012L1.12804 45.99C1.78276 45.8163 2.73329 45.9037 3.90572 46.2266C5.06183 46.545 6.36598 47.0727 7.69139 47.7046C10.2021 48.9017 12.7406 50.4495 14.4087 51.5753L14.0762 53.3391L13.9882 53.8057L14.4497 53.9176L21.3318 55.5861L21.6141 55.6545L21.8134 55.4432L22.01 55.2346L22.1053 55.1336L22.1348 54.9979L22.7247 52.2867L22.7608 52.1208L22.6884 51.9672L22.4918 51.5501L22.4028 51.3614L22.2062 51.2919L19.0897 50.1901L21.8168 38.6203L25.0512 39.5231L25.576 39.6695L25.677 39.1341L26.2669 36.0058L26.3445 35.594L25.9526 35.4456ZM28.0174 8.70863L29.3262 11.3306L34.034 8.55654C34.3443 7.78097 34.1094 7.16672 33.7275 6.78001C33.5172 6.56711 33.265 6.4273 33.034 6.36953C32.7993 6.31082 32.6307 6.34503 32.5328 6.40733L32.5125 6.42021L32.4912 6.43109L28.0174 8.70863ZM38.3756 14.8851L32.8469 18.29L31.177 15.1826L35.6372 12.9119L35.6442 12.9083L35.6512 12.9045C36.5607 12.4045 37.4702 12.5649 38.0192 13.0126C38.5261 13.426 38.7626 14.1065 38.3756 14.8851ZM6.28747 37.7429L16.7261 40.6063L15.2411 47.081C14.0526 46.1967 12.2996 45.1792 10.5059 44.3488C9.42618 43.849 8.31777 43.4103 7.29243 43.1064C6.54074 42.8836 5.81311 42.7269 5.16405 42.6793L6.28747 37.7429ZM62.742 10.0106C62.742 15.5393 58.4283 20.0212 53.107 20.0212C47.7858 20.0212 43.4721 15.5393 43.4721 10.0106C43.4721 4.4819 47.7858 0 53.107 0C58.4283 0 62.742 4.4819 62.742 10.0106ZM59.058 11.018C59.058 14.7038 56.2408 17.6917 52.7658 17.6917C50.2606 17.6917 48.0973 16.1389 47.0849 13.8913L49.1916 12.0847H49.6576V13.6457V13.7063L49.6721 13.7652C49.7453 14.0627 49.9158 14.3398 50.1044 14.5739C50.2972 14.8132 50.5333 15.0376 50.7767 15.2298C51.02 15.422 51.2818 15.5909 51.5316 15.7141C51.767 15.8303 52.0462 15.9333 52.309 15.9333H54.6559H54.8296L54.9659 15.8256C55.0763 15.7384 55.2016 15.6487 55.3448 15.5463L55.4425 15.4763C55.6211 15.3482 55.8183 15.2039 56.0057 15.0453C56.3697 14.7372 56.765 14.3202 56.9016 13.7652C56.9361 13.6249 56.9447 13.4225 56.948 13.2459C56.9518 13.0496 56.9492 12.8155 56.9445 12.5766C56.9407 12.391 56.9358 12.204 56.931 12.0257C56.9305 12.006 56.93 11.9857 56.9295 11.9663L59.024 10.3199C59.0465 10.5494 59.058 10.7822 59.058 11.018ZM55.9322 12.0847C55.9368 12.2569 55.9414 12.4319 55.9447 12.5966C55.9494 12.8323 55.9516 13.0506 55.9482 13.2268C55.9465 13.3149 55.9435 13.3879 55.9393 13.4447C55.9355 13.4958 55.9316 13.5199 55.9307 13.5253L55.9306 13.5263C55.8716 13.7657 55.6801 14.0108 55.3597 14.282C55.2048 14.413 55.0353 14.5377 54.8593 14.664L54.7703 14.7277C54.6759 14.7952 54.5791 14.8645 54.4867 14.9333H52.309C52.2784 14.9333 52.1664 14.9122 51.974 14.8173C51.796 14.7295 51.5932 14.6004 51.3965 14.4451C51.1998 14.2897 51.0203 14.1168 50.8831 13.9465C50.7629 13.7973 50.6914 13.6702 50.6576 13.5742V12.0847H55.9322ZM48.6811 11.2051L46.7229 12.8844C46.5605 12.2921 46.4735 11.6658 46.4735 11.018C46.4735 10.8018 46.4832 10.588 46.5021 10.377L46.5265 10.4092L48.8761 8.63334H56.3843H56.5799L56.7236 8.50062L58.0034 7.31833C58.3639 7.8912 58.643 8.52653 58.8232 9.20577L56.4328 11.0847H49.0066H48.8216L48.6811 11.2051ZM57.4052 6.50959L56.1887 7.63334H55.4888L53.9986 4.47229C55.3351 4.75388 56.5192 5.48447 57.4052 6.50959ZM53.1072 4.92649L54.3832 7.63334H51.8311L53.1072 4.92649ZM48.7084 7.63334H50.7256L52.2664 4.36496C49.6861 4.57986 47.5432 6.44562 46.7763 8.96691L48.4069 7.73445L48.5407 7.63334H48.7084ZM54.1894 13.0346L54.1798 14.3269L54.1779 14.5771L53.9277 14.575L52.5799 14.5635L52.5804 14.4987L52.3154 14.4985L52.3162 13.3271L52.3163 13.2234L52.3898 13.1501C52.4981 13.0423 52.6614 12.8634 52.7951 12.6823C52.8621 12.5915 52.9175 12.5057 52.955 12.4319C52.9736 12.3952 52.986 12.3649 52.9934 12.3412C53.0004 12.3185 53.001 12.3069 53.001 12.3069L53.501 12.2996V12.3088H53.5106V12.3969C53.742 12.4353 53.9113 12.5039 54.0258 12.6115C54.1899 12.7658 54.1896 12.9511 54.1894 13.0267V13.0329H53.9664L54.1894 13.0346ZM52.8161 13.4293L52.8157 14.0655L53.6817 14.0729L53.6894 13.0329C53.6894 12.9747 53.6838 12.9759 53.6838 12.9759C53.6645 12.9577 53.5736 12.8975 53.2739 12.871C53.2491 12.9077 53.2234 12.9439 53.1974 12.9792C53.0735 13.147 52.9306 13.3094 52.8161 13.4293ZM49.1349 10H50.4819V8.929H50.2554V9.811H49.9224V8.929H49.6944V9.811H49.3614V8.929H49.1349V10ZM51.2666 9.2095C51.2126 9.1805 51.1476 9.166 51.0716 9.166C50.9946 9.166 50.9271 9.182 50.8691 9.214C50.8111 9.246 50.7656 9.294 50.7326 9.358C50.7006 9.421 50.6846 9.5005 50.6846 9.5965C50.6846 9.6905 50.7026 9.7685 50.7386 9.8305C50.7746 9.8925 50.8241 9.939 50.8871 9.97C50.9501 10 51.0226 10.015 51.1046 10.015C51.1676 10.015 51.2211 10.01 51.2651 10C51.3101 9.991 51.3526 9.9765 51.3926 9.9565V9.784C51.3466 9.806 51.3021 9.8225 51.2591 9.8335C51.2161 9.8435 51.1681 9.8485 51.1151 9.8485C51.0521 9.8485 51.0026 9.8305 50.9666 9.7945C50.9316 9.7585 50.9131 9.709 50.9111 9.646H51.4391V9.538C51.4391 9.458 51.4241 9.3905 51.3941 9.3355C51.3641 9.2805 51.3216 9.2385 51.2666 9.2095ZM50.9651 9.367C50.9941 9.339 51.0301 9.325 51.0731 9.325C51.1081 9.325 51.1371 9.3325 51.1601 9.3475C51.1831 9.3625 51.2001 9.383 51.2111 9.409C51.2231 9.435 51.2291 9.4645 51.2291 9.4975H50.9156C50.9206 9.4385 50.9371 9.395 50.9651 9.367ZM52.3043 9.508C52.3323 9.477 52.3463 9.4395 52.3463 9.3955C52.3463 9.3415 52.3313 9.299 52.3013 9.268C52.2723 9.237 52.2323 9.215 52.1813 9.202C52.1313 9.188 52.0743 9.181 52.0103 9.181H51.6203V10H52.0103C52.0753 10 52.1303 9.994 52.1753 9.982C52.2213 9.97 52.2588 9.953 52.2878 9.931C52.3168 9.909 52.3378 9.883 52.3508 9.853C52.3648 9.823 52.3718 9.7905 52.3718 9.7555C52.3718 9.7055 52.3543 9.6645 52.3193 9.6325C52.2853 9.6005 52.2398 9.581 52.1828 9.574V9.568C52.2368 9.559 52.2773 9.539 52.3043 9.508ZM52.1033 9.6745C52.1283 9.6885 52.1408 9.7115 52.1408 9.7435C52.1408 9.7805 52.1268 9.807 52.0988 9.823C52.0718 9.838 52.0373 9.8455 51.9953 9.8455H51.8438V9.652H51.9908C52.0408 9.652 52.0783 9.6595 52.1033 9.6745ZM52.0898 9.3565C52.1098 9.3685 52.1198 9.3875 52.1198 9.4135C52.1198 9.4445 52.1073 9.467 52.0823 9.481C52.0583 9.494 52.0228 9.5005 51.9758 9.5005H51.8438V9.3385H52.0013C52.0403 9.3385 52.0698 9.3445 52.0898 9.3565ZM53.0737 10H53.2972V9.181H52.6777C52.6707 9.287 52.6627 9.3775 52.6537 9.4525C52.6457 9.5265 52.6367 9.588 52.6267 9.637C52.6167 9.686 52.6057 9.7245 52.5937 9.7525C52.5827 9.7805 52.5707 9.8 52.5577 9.811C52.5457 9.822 52.5327 9.8275 52.5187 9.8275C52.5057 9.8275 52.4932 9.826 52.4812 9.823C52.4692 9.82 52.4577 9.8165 52.4467 9.8125V9.991C52.4637 9.999 52.4827 10.005 52.5037 10.009C52.5247 10.013 52.5482 10.015 52.5742 10.015C52.6222 10.015 52.6627 10.003 52.6957 9.979C52.7287 9.954 52.7557 9.915 52.7767 9.862C52.7987 9.809 52.8167 9.7405 52.8307 9.6565C52.8457 9.5715 52.8582 9.469 52.8682 9.349H53.0737V10ZM54.063 9.2095C54.009 9.1805 53.944 9.166 53.868 9.166C53.791 9.166 53.7235 9.182 53.6655 9.214C53.6075 9.246 53.562 9.294 53.529 9.358C53.497 9.421 53.481 9.5005 53.481 9.5965C53.481 9.6905 53.499 9.7685 53.535 9.8305C53.571 9.8925 53.6205 9.939 53.6835 9.97C53.7465 10 53.819 10.015 53.901 10.015C53.964 10.015 54.0175 10.01 54.0615 10C54.1065 9.991 54.149 9.9765 54.189 9.9565V9.784C54.143 9.806 54.0985 9.8225 54.0555 9.8335C54.0125 9.8435 53.9645 9.8485 53.9115 9.8485C53.8485 9.8485 53.799 9.8305 53.763 9.7945C53.728 9.7585 53.7095 9.709 53.7075 9.646H54.2355V9.538C54.2355 9.458 54.2205 9.3905 54.1905 9.3355C54.1605 9.2805 54.118 9.2385 54.063 9.2095ZM53.7615 9.367C53.7905 9.339 53.8265 9.325 53.8695 9.325C53.9045 9.325 53.9335 9.3325 53.9565 9.3475C53.9795 9.3625 53.9965 9.383 54.0075 9.409C54.0195 9.435 54.0255 9.4645 54.0255 9.4975H53.712C53.717 9.4385 53.7335 9.395 53.7615 9.367ZM55.1997 9.181H54.9537L54.6402 9.5785V9.181H54.4167V10H54.6402V9.5845L54.9747 10H55.2282L54.8757 9.574L55.1997 9.181ZM55.4421 9.9715C55.4991 10.0005 55.5681 10.015 55.6491 10.015C55.7061 10.015 55.7531 10.01 55.7901 10C55.8281 9.991 55.8641 9.9755 55.8981 9.9535V9.763C55.8641 9.785 55.8291 9.8025 55.7931 9.8155C55.7571 9.8275 55.7156 9.8335 55.6686 9.8335C55.6316 9.8335 55.6001 9.825 55.5741 9.808C55.5481 9.79 55.5281 9.7635 55.5141 9.7285C55.5011 9.6925 55.4946 9.6475 55.4946 9.5935C55.4946 9.5385 55.5006 9.493 55.5126 9.457C55.5256 9.42 55.5451 9.3925 55.5711 9.3745C55.5971 9.3555 55.6296 9.346 55.6686 9.346C55.6986 9.346 55.7286 9.3505 55.7586 9.3595C55.7896 9.3685 55.8226 9.38 55.8576 9.394L55.9236 9.2215C55.8926 9.2065 55.8561 9.1935 55.8141 9.1825C55.7731 9.1715 55.7246 9.166 55.6686 9.166C55.5896 9.166 55.5196 9.181 55.4586 9.211C55.3986 9.241 55.3516 9.2875 55.3176 9.3505C55.2836 9.4135 55.2666 9.495 55.2666 9.595C55.2666 9.692 55.2816 9.7715 55.3116 9.8335C55.3416 9.8955 55.3851 9.9415 55.4421 9.9715Z" fill="black"/>
</svg>
